# xmcd CD database file
#
# Track frame offsets:
#	150
#	20116
#	33365
#	68813
#	87912
#	106630
#	135787
#	166602
#	186657
#	208683
#	228644
#	246079
#
# Disc length: 3642 seconds
#
# Revision: 0
# Processed by: cddbd v1.4PL0 Copyright (c) Steve Scherf et al.
# Submitted via: CdAid (MTCDDB.DLL V2003.07.15)
#
DISCID=990e380c
DTITLE=Gary Moore - Parisienne Walkways The Blues Collection
DYEAR=2000
DGENRE=Blues
TTITLE0=Oh Pretty Woman
TTITLE1=Walking by myself
TTITLE2=Need your love so bad
TTITLE3=Merry go round
TTITLE4=Showbiz Blues
TTITLE5=Love that burns
TTITLE6=Parisienne Walkways
TTITLE7=That kind of woman
TTITLE8=The sky is crying
TTITLE9=Cold day in Hell
TTITLE10=Only fool in town
TTITLE11=King of the blues
EXTD=ID3G:   0 YEAR: 2000
EXTT0=
EXTT1=
EXTT2=
EXTT3=
EXTT4=
EXTT5=
EXTT6=
EXTT7=
EXTT8=
EXTT9=
EXTT10=
EXTT11=
PLAYORDER=
